<svg width="36" height="36" viewBox="0 0 36 36" fill="none" xmlns="http://www.w3.org/2000/svg">
<g clip-path="url(#clip0_107_22)">
<path d="M33.71 17.2898L18.71 2.28982C18.5227 2.10357 18.2692 1.99902 18.005 1.99902C17.7408 1.99902 17.4874 2.10357 17.3 2.28982L2.30003 17.2898C2.1362 17.4811 2.05059 17.7272 2.06032 17.9789C2.07004 18.2305 2.17437 18.4693 2.35246 18.6474C2.53056 18.8255 2.7693 18.9298 3.02097 18.9395C3.27265 18.9492 3.51873 18.8636 3.71003 18.6998L18 4.40982L32.29 18.7098C32.4813 18.8736 32.7274 18.9592 32.9791 18.9495C33.2308 18.9398 33.4695 18.8355 33.6476 18.6574C33.8257 18.4793 33.93 18.2405 33.9397 17.9889C33.9495 17.7372 33.8639 17.4911 33.7 17.2998L33.71 17.2898Z" fill="#111111"/>
<path d="M28 31.9998H23V21.9998H13V31.9998H8V17.9998L6 19.9998V31.9998C6 32.5302 6.21071 33.0389 6.58579 33.414C6.96086 33.7891 7.46957 33.9998 8 33.9998H15V23.9998H21V33.9998H28C28.5304 33.9998 29.0391 33.7891 29.4142 33.414C29.7893 33.0389 30 32.5302 30 31.9998V19.7598L28 17.7598V31.9998Z" fill="#111111"/>
</g>
<defs>
<clipPath id="clip0_107_22">
<rect width="36" height="36" fill="white"/>
</clipPath>
</defs>
</svg>
